<svg xmlns="http://www.w3.org/2000/svg" height="293.7" width="1122.5"><defs><clipPath id="a" clipPathUnits="userSpaceOnUse"><path d="M0 220h842V0H0z"/></clipPath></defs><g clip-path="url(#a)" transform="matrix(1.33333 0 0 -1.33333 0 294)"><path d="M344 71c0 2-1 3-3 4v1l7-1 6 1v-1c-2-1-3-2-3-4V50c0-7 3-11 11-11 7 0 12 3 12 10v22c0 2-1 3-3 4v1l5-1 6 1v-1c-3-1-4-2-4-4V50c0-9-5-15-17-15-11 0-17 5-17 14zM392 37l3 3v30c0 3-1 4-3 5v1a78 78 0 018 0l26-31v26c0 2-1 3-4 4v1l6-1 5 1v-1c-2-1-4-2-4-4V35h-1l-6 5-23 27V40l4-3v-1h-11zM596 45h1c0-2 2-4 3-5 2-2 5-2 8-2 5 0 8 2 8 6 0 5-4 7-9 9-4 2-11 5-11 12s5 11 13 11l11-1v-8h-1c-1 5-6 6-10 6-6 0-8-3-8-6 0-4 5-6 10-8 5-3 11-6 11-13 0-6-5-11-14-11l-12 2zM707 52l-11 17c-1 3-3 5-5 6v1l7-1 6 1v-1l-2-2 2-3 7-13 8 13 1 3-2 2v1l5-1 5 1v-1l-6-7-10-16m1 2V41c0-2 1-4 3-4v-1h-13v1c2 0 4 2 4 4v12M511 76h29v-8h-1c-1 3-2 5-7 5h-11V59h12c2 0 2 1 3 3h1v-5-5h-1c-1 2-1 3-3 3l-4 1h-8V39h12c5 0 6 2 8 5h1l-1-8h-30v1c2 0 4 2 4 4v30c0 2-1 3-4 4zM448 71c0 2-1 3-3 4v1l6-1 7 1v-1c-2-1-3-2-3-4V41c0-2 1-3 3-4v-1h-13v1c2 1 3 2 3 4zM636 71c0 2-2 3-4 4v1l7-1 7 1v-1c-3-1-4-2-4-4V41c0-2 1-3 4-4v-1h-14v1c2 1 4 2 4 4zM670 75l-19 1v-8h1c1 3 4 4 6 4h9V41c0-2-2-3-4-4v-1h14v1c-3 1-4 2-4 4v31h9c2 0 4-1 5-4h1v8l-18-1M562 41c0-2 1-3 3-4v-1h-13v1c2 0 3 2 3 4v30c0 2-1 3-3 4v1h16c10 0 15-4 15-11 0-5-4-9-10-10l3-3 8-10c2-3 4-5 7-5v-1l-5-1c-3 0-6 2-8 5l-8 10c-2 2-3 4-6 4h-2zm0 16h5c7 0 10 4 10 8 0 5-4 8-11 8h-4zM468 71c-1 2-2 3-5 4v1l8-1 6 1v-1c-1-1-2-1-2-3l1-4 10-24 10 24 1 4-2 3v1l5-1 6 1v-1c-2-1-4-2-5-6l-14-33h-4zM504 177c-1 3-4 6-8 7v2h26v-2c-2-1-5-2-5-4l3-9 20-44 18 44 3 8c0 3-3 4-6 5v2h22v-2c-5-1-7-4-10-10l-27-64h-6zM243 113c4 1 6 2 6 6v59c0 4-2 5-6 6v2h24v-2c-3-1-6-2-6-6v-25h44v25c0 4-3 5-6 6v2h24v-2c-4-1-6-2-6-6v-59c0-4 2-5 6-6v-2h-24v2c3 1 6 2 6 6v28h-44v-28c0-4 3-5 6-6v-2h-24zM746 113c4 1 7 3 7 7v58c0 4-2 5-7 6v2h13l22 1c27 0 43-15 43-38 0-22-17-38-45-38h-33zm19 4l12-1c22 0 34 13 34 32 0 20-12 34-33 34l-13-1zM443 120c0-4 3-6 7-7v-2h-25v2c4 1 6 3 6 7v57c0 4-2 6-6 7v2h31c17 0 28-7 28-20 0-10-8-17-19-19l5-5 15-20c4-5 8-10 13-10v-1l-9-1c-6 0-11 2-15 8-5 4-12 15-16 20-2 4-6 6-11 7l-4 1zm0 30h10c14 0 18 8 18 15 0 10-7 17-19 17l-9-1zM680 120c0-4 3-6 7-7v-2h-25v2c4 1 6 3 6 7v57c0 4-2 6-6 7v2h31c18 0 28-7 28-20 0-10-8-17-19-19l5-5 15-20c4-5 8-10 13-10v-1l-9-1c-6 0-11 2-15 8l-16 20c-2 4-5 6-11 7l-4 1zm0 30h10c14 0 18 8 18 15 0 10-7 17-19 17l-9-1zM334 113c5 1 8 4 9 8l24 58 3 8h6l3-8 25-58c2-4 4-7 9-8v-2h-26v2c3 1 5 3 5 5l-2 5-5 12h-28l-5-12-2-5c0-2 1-4 6-5v-2h-22zm48 28l-12 28-11-28zM573 113c5 1 7 4 9 8l24 58 2 8h7l2-8 26-58c1-4 3-7 8-8v-2h-26v2c4 1 5 3 5 5l-1 5-6 12h-28l-5-12-1-5c0-2 1-4 5-5v-2h-21zm48 28l-12 28-11-28z" fill="#1d1d1b"/><path d="M21 210h168v-64c0-29-11-91-84-136 0 0-78 32-84 136z" fill="#a81d28"/><path d="M20 210h168v-64c0-29-10-90-83-136 0 0-79 32-85 136z" fill="none" stroke="#12110c" stroke-width=".2"/><path d="M148 128s-2-5-8 0l-23 1s-3-1-4 2l1 7-3 1s-5 0-5 4c0 0-1 4 6 4 0 0 2-1 2 2v19s0 2-3 2c0 0-4-1-5 2 0 0 0 4 3 5h4l1 3v6l3 1h4l2 2 2-1s4-2 16-1h2s3-2 4 0h8s7-2 11 2h2s2-3 3-2l5-1 1-7s-1-3 3-3c0 0 4 1 4-3 0 0 1-5-7-4v-2l-1-18s0-2 3-2c0 0 5 0 5-4 0 0 0-5-6-4l-2-1v-7s0-3-4-3h-23-1M104 105l1 1 3 1 9-1s9 0 13 2h2l3-1h5s3-1 3-3v-2-6h4s4-1 3-3c0 0 0-3-2-3l-4-1-1-3-1-17s0-2 3-2c0 0 4 0 5-2 0 0 1-4-1-5h-1l-4-1-2-3v-4s1-4-2-4h-4-3-24l-2-1s-3-3-6-1l-2 2h-2l-25-1s-6 0-6 2v7s0 3-2 3h-5s-3 3-2 5l4 3h4v2l1 18s0 2-2 2h-3s-3 0-4 2v3s2 3 6 2l3 1v7s-1 2 3 3c0 0 4-2 5 1 0 0 2 3 3 1 0 0 3-3 10-3l12 1 4-2zM67 128s-2-5-8 0l-23 1s-3-1-4 2l1 7-3 1s-5 0-5 4c0 0-1 4 6 4 0 0 2-1 2 2v19s0 2-3 2c0 0-4-1-5 2 0 0 0 4 3 5h4l1 3v6l3 1h4l2 2 2-1s4-2 16-1h2s3-2 4 0h8s7-2 11 2h2s2-3 3-2l5-1 1-7s-1-3 3-3c0 0 4 1 4-3 0 0 1-5-7-4v-2l-1-18s0-2 3-2c0 0 5 0 5-4 0 0 0-5-6-4l-2-1v-7s0-3-4-3H68h-1" fill="#fff"/><path d="M148 128s-2-5-8 0l-23 1s-3-1-4 2l1 7-3 1s-5 0-5 4c0 0-1 4 6 4 0 0 2-1 2 2v19s0 2-3 2c0 0-4-1-5 2 0 0 0 4 3 5h4l1 3v6l3 1h4l2 2 2-1s4-2 16-1h2s3-2 4 0h8s7-2 11 2h2s2-3 3-2l5-1 1-7s-1-3 3-3c0 0 4 1 4-3 0 0 1-5-7-4v-2l-1-18s0-2 3-2c0 0 5 0 5-4 0 0 0-5-6-4l-2-1v-7s0-3-4-3h-23-1" fill="#12110c"/><path d="M148 128s-2-5-8 0l-23 1s-3-1-4 2l1 7-3 1s-5 0-5 4c0 0-1 4 6 4 0 0 2-1 2 2v19s0 2-3 2c0 0-4-1-5 2 0 0 0 4 3 5h4l1 3v6l3 1h4l2 2 2-1s3-2 16-1h2s3-2 4 0h8s7-2 11 2h2s2-3 3-2l5-1 1-7s-1-3 3-3c0 0 4 1 4-3 0 0 1-5-7-4v-2l-1-18s0-2 3-2c0 0 5 0 5-4 0 0 0-5-6-4l-2-1v-7s0-3-4-3h-23-1z" fill="none"/><path d="M122 184v-3-40s0-3-2-4l-1 2v40s1 5 3 5" fill="#fff"/><path d="M122 184v-3-40s0-3-2-4l-1 2v40s1 5 3 5z" fill="none"/><path d="M118 136v39s-1 7 1 9c0 0 0 3-3 0l-1-6s0-3-2-3l-5-1s-1-3 2-3c0 0 5 0 5-2v-20s1-4-3-4c0 0-4 1-4-2 0 0 1-3 5-2 0 0 3 0 2-3v-5s0-2 3-2h21s1-1 1 1l-2 1h-17s-3-1-3 3" fill="#fff"/><path d="M122 137s-1-2 1-2h14l4-1s4 1 0 3h-14l-3 1s-1 1-2-1" fill="#fff"/><path d="M122 137s-1-2 1-2h14l4-1s4 1 0 3h-14l-3 1s-1 1-2-1z" fill="none"/><path d="M145 135s-3 0-2-4c0 0 0-2 3-2 0 0 2 0 2 3l-3 3M147 136l2 1s14-1 16 1h2l2-3h-2l-16-1s-5 0-4 2" fill="#fff"/><path d="M147 136l2 1s14-1 16 1h2l2-3h-2l-16-1s-5 0-4 2z" fill="none"/><path d="M149 132l2 1h19s1-1 1 2l1 31v15l-1 2s0 3 3 2c0 0 2 0 1-3v-5s0-2 3-2c0 0 4 0 4-2 0 0 1-2-3-2h-3s-2-1-1-3l-1-19s0-4 3-4h5s2-4-3-4h-4l-1-7s0-4-3-4l-20 1s-2-1-2 1M124 185v-43s0-2 3-3h14s2-2 2 0v43s0 3-2 3h-11l-4 2-2-2" fill="#fff"/><path d="M146 183l-1-21v-23s0-2 1-1l7 1h11l1 2a1956 1956 0 001 45h-3s1-1-12-1c0 0-5 0-5-2M167 184v-43s1-4 3-4v2l1 41s-1 7-4 4" fill="#fff"/><path d="M167 184v-43s1-4 3-4v2l1 41s-1 7-4 4z" fill="none"/><path d="M151 171c-1 1 2 1 2 1h1l2-1c1-1-1-2-1-2v-2-14l1-2-1-1h-4l-1 2 2 3v13zM132 158v-4l1-2v-2h-5v2l1 3v13l-1 2v1l2 1h6c5-2 5-6 5-6 0-4-4-6-4-6v-2l4-6v-1c0-2-3 0-3 0l-5 8-1-1m0 11v-7c3-2 5 1 5 1 3 3 0 6-1 7h-3zM104 105l1 1 3 1 9-1s9 0 13 2h2l3-1h5s3-1 3-3v-2-6h4s4-1 3-3c0 0 0-3-2-3l-4-1-1-3-1-17s0-2 3-2c0 0 4 0 5-2 0 0 1-4-1-5h-1l-4-1-2-3v-4s1-4-2-4h-4-3-24l-2-1s-3-3-6-1l-2 2h-2l-25-1s-6 0-6 2v7s0 3-2 3h-5s-3 3-2 5l4 3h4v2l1 18s0 2-2 2h-3s-3 0-4 2v3s2 3 6 2l3 1v7s-1 2 3 3c0 0 4-2 5 1 0 0 2 3 3 1 0 0 3-3 10-3l12 1 4-2z" fill="#12110c"/><path d="M104 105l1 2h12s9-1 13 2l2-1 3-1h5s3-1 3-3v-2-5h4s4-2 3-4c0 0 0-2-2-3l-4-1-1-2-1-18s0-2 3-2c0 0 4 1 5-2 0 0 1-4-1-4l-1-1-4-1-2-2v-5s1-4-2-4h-4-3-24l-2-1s-3-2-6 0l-2 1h-2-25s-6-1-6 1v8s0 2-2 2l-5 1s-3 2-2 4l4 3h4v2l1 18s0 2-2 2h-3s-3 0-4 2v3s2 3 6 3c0 0 3-1 3 1v6s-1 2 3 3c0 0 4-1 5 1 0 0 2 3 3 1 0 0 3-3 10-2h12l4-1z" fill="none"/><path d="M107 52h3l17 1h10v2l1 5v39s1 3-1 5v1h1l2-1s2-3 1-5c0 0-1-4 1-4h3l3-2s0-2-2-2h-3s-3 0-2-3V67s0-2 3-2l4-1s1-3-2-3c0 0-5 0-5-2l-1-4v-4l-4-1h-27s-2 0-2 2M103 54s3 0 3-2 0-4-2-4c-1 0-3 0-3 2s0 4 2 4" fill="#fff"/><path d="M106 56l3 1h18l4 1 2-1 2-2-2-1h-23s-4-1-4 2" fill="#fff"/><path d="M106 56l3 1h18l4 1 2-1 2-2-2-1h-23s-4-1-4 2z" fill="none"/><path d="M74 104V61s1-3-2-4c0 0-1-2-1 0l1 42s0 3 2 5" fill="#fff"/><path d="M74 104l1-2-1-41s1-3-2-4c0 0-1-2-1 0l1 42s0 3 2 5z" fill="none"/><path d="M72 104l-2-4v-9-7-18-11s-1-4 2-3h25s3 0 2-1l-2-1H76h-8l-1 4v4s0 2-3 3c0 0-5-1-5 2 0 0 1 2 5 2 0 0 4-1 3 2l1 20s0 3-2 3h-3s-4 0-4 3c0 0 1 2 5 2 0 0 3-1 4 2 0 0-1 7 1 8l3-1" fill="#fff"/><path d="M76 59s1-3 5-2l18-1 2-1s0-2-3-1H74s-2 0 0 4z" fill="#fff"/><path d="M76 59s1-3 5-2l18-1 2-1s0-2-3-1H74s-2 0 0 4z" fill="none"/><path d="M133 60l2-3s2-2 1 1l1 39v4l-2 3s-2 1-2-1V61z" fill="#fff"/><path d="M133 60l2-3s2-2 1 1l1 39v4l-2 3s-2 1-2-1V61z" fill="none"/><path d="M103 79l-1-6V59s0-2-3 0H81s-5 0-5 2v44s0 2 2 1c0 0 1-2 6-1h15s3 0 3-3v-8l1-3 1 1v2l1 9s0 2 2 2h14c2 0 3-2 9 2l1-2V92 62s0-3-4-3h-16l-6-1-1 1v20z" fill="#fff"/><path d="M90 89V75l1-2v-2h-5s-2 0 0 3l1 3v12l-1 2h-1l-2-2s-1-2-2 0v1l2 4 3-1h6l2 1 1-2s1-3-1-3l-2 2s-2 1-2-2M120 92s-5 1-5-5c0 0-1-4 5-6 0 0 4-2 4-5 0 0 0-4-5-2l-2 2-1 1-1-4s0-2 2 0l1-1s4-3 7 1c0 0 3 3 1 7 0 0-2 3-5 4 0 0-3 1-4 4 0 0 1 4 5 2l2-2 1 2v2s-1 2-2 0h-3M104 95l1-2c3-7 5-18 5-18l2-2c2-1 0-2 0-2l-4 1h-1v4l-1 3-2-1h-2l-1 1-2-4v-3h-3c-2 0-1 1-1 1a299 299 0 017 21c1 0 1 2 2 1m-2-9l-2-4 1-2h3l1 2-1 4-1 1zM67 128s-2-5-8 0l-23 1s-3-1-4 2l1 7-3 1s-5 0-5 4c0 0-1 4 6 4 0 0 2-1 2 2v19s0 2-3 2c0 0-4-1-5 2 0 0 0 4 3 5h4l1 3v6l3 1h4l2 2 2-1s4-2 16-1h2s3-2 4 0h8s7-2 11 2h2s2-3 3-2l5-1 1-7s-1-3 3-3c0 0 4 1 4-3 0 0 1-5-7-4v-2l-1-18s0-2 3-2c0 0 5 0 5-4 0 0 0-5-6-4l-2-1v-7s0-3-4-3H68h-1" fill="#12110c"/><path d="M67 128s-2-5-8 0l-23 1s-3-1-4 2l1 7-3 1s-5 0-5 4c0 0-1 4 6 4 0 0 2-1 2 2v19s0 2-3 2c0 0-4-1-5 2 0 0 0 4 3 5h4l1 3v6l3 1h4l2 2 2-1s4-2 16-1h2s3-2 4 0h8s7-2 11 2h2s2-3 3-2l5-1 1-7s-1-3 3-3c0 0 4 1 4-3 0 0 1-5-7-4v-2l-1-18s0-2 3-2c0 0 5 0 5-4 0 0 0-5-6-4l-2-1v-7s0-3-4-3H68h-1z" fill="none"/><path d="M41 184v-3-40s0-3-2-4l-1 2v40s1 5 3 5" fill="#fff"/><path d="M41 184v-3-40s0-3-2-4l-1 2v40s1 5 3 5z" fill="none"/><path d="M37 136a3897 3897 0 000 39l1 9s0 3-3 0v-6s0-3-3-3l-5-1s-1-3 2-3c0 0 5 0 5-2v-20s1-4-3-4c0 0-4 1-4-2 0 0 1-3 5-2 0 0 3 0 3-3v-5s-1-2 2-2h21s1-1 1 1l-1 1H40s-3-1-3 3" fill="#fff"/><path d="M40 136s0-2 2-1h14l4-1s4 1 0 3H46l-3 1s-1 1-3-2" fill="#fff"/><path d="M40 136s0-2 2-1h14l4-1s4 1 0 3H46l-3 1s-1 1-3-2z" fill="none"/><path d="M64 134s-3 0-3-3c0 0 0-3 3-3 0 0 3 1 2 3 0 0-1 4-2 3M66 136l2 1h18l2-2-2-1H69s-4-1-3 2" fill="#fff"/><path d="M66 136l2 1h18l2-2-2-1H69s-4-1-3 2z" fill="none"/><path d="M68 132l2 1h19s1-1 1 2l1 31v15l-1 2s0 3 3 2c0 0 2 0 1-3v-5s0-2 3-2c0 0 4 0 4-2 0 0 1-2-3-2h-3l-1-3v-19s-1-4 3-4h4s2-4-3-4h-4l-1-7s0-4-2-4l-21 1s-2-1-2 1M43 185v-43s0-2 3-3h14s2-2 2 0l1 43s-1 3-3 3H49l-4 2-2-2" fill="#fff"/><path d="M86 184v-43s1-4 3-4v2l1 41s-1 7-4 4" fill="#fff"/><path d="M86 184v-43s1-4 3-4v2l1 41s-1 7-4 4z" fill="none"/><path d="M65 183l-1-21v-23l1-1s4 2 7 1c0 0 9-1 11 1 0 0 1-1 1 1a1823 1823 0 001 45h-2l-13-1s-5 1-5-2" fill="#fff"/><path d="M61 171l-2-3-4-16s-1-2-3 0l-5 17-2 1s-1 2 1 2h5s1-2-1-3l3-11s1-3 2 0l3 9-1 3v2l4-1M68 169v-16l-1-2s-1-1 9-1c0 0 4 0 3 4 0 0 0 2-2 0 0 0 0-3-5-2l-1 2v6s0 2 2 1h3v3h-1s-1-2-3-1c0 0-2 2-1 4 0 0 0 3 2 3l3-1s1-2 2 0l-1 2-1 1h-5l-4-1s-1-1 1-2" fill="#12110c"/></g></svg>